<svg width="96" height="96" viewBox="0 0 96 96" fill="none" xmlns="http://www.w3.org/2000/svg">
<path d="M63.3245 38.8008L47.0554 60.5046C46.7918 60.8558 46.4559 61.1462 46.0704 61.3563C45.6849 61.5663 45.2588 61.691 44.821 61.7221C44.3831 61.7531 43.9437 61.6896 43.5325 61.536C43.1213 61.3824 42.7478 61.1422 42.4374 60.8317L32.6743 51.0675" stroke="black" stroke-width="4" stroke-linecap="square" stroke-linejoin="round"/>
<path d="M42.8091 4.487C43.4333 3.71065 44.2237 3.08422 45.1219 2.65382C46.0201 2.22342 47.0033 2 47.9992 2C48.9951 2 49.9783 2.22342 50.8765 2.65382C51.7747 3.08422 52.565 3.71065 53.1893 4.487L59.3684 12.1782C60.0682 13.0508 60.9764 13.7329 62.0092 14.1617C63.042 14.5904 64.1661 14.752 65.2777 14.6315L75.0858 13.5643C76.0787 13.454 77.0836 13.5684 78.0263 13.8993C78.9689 14.2302 79.8251 14.7689 80.5315 15.4757C81.2379 16.1824 81.7764 17.0391 82.107 17.9822C82.4377 18.9254 82.5521 19.9309 82.4419 20.9243L81.3752 30.7376C81.2548 31.8498 81.4163 32.9745 81.8448 34.0079C82.2734 35.0412 82.9551 35.9499 83.8272 36.6501L91.5143 42.8325C92.2903 43.4571 92.9164 44.2478 93.3465 45.1465C93.7767 46.0452 94 47.0289 94 48.0254C94 49.0218 93.7767 50.0055 93.3465 50.9042C92.9164 51.8029 92.2903 52.5936 91.5143 53.2182L83.8027 59.372C82.9309 60.0733 82.2493 60.9828 81.8209 62.0167C81.3924 63.0506 81.2307 64.1758 81.3507 65.2886L82.4173 75.1019C82.5284 76.0955 82.4145 77.1013 82.0841 78.0448C81.7537 78.9883 81.2153 79.8453 80.5087 80.5523C79.8022 81.2592 78.9456 81.7979 78.0026 82.1285C77.0596 82.4591 76.0543 82.573 75.0613 82.4619L65.2532 81.3947C64.1415 81.2738 63.0173 81.4352 61.9844 81.864C60.9516 82.2928 60.0434 82.9751 59.3438 83.848L53.1893 91.5106C52.5654 92.2876 51.7753 92.9146 50.877 93.3455C49.9788 93.7763 48.9953 94 47.9992 94C47.003 94 46.0196 93.7763 45.1213 93.3455C44.2231 92.9146 43.4329 92.2876 42.8091 91.5106L36.6341 83.8235C35.9334 82.9509 35.0244 82.2688 33.991 81.84C32.9575 81.4113 31.8329 81.2497 30.7206 81.3701L20.9125 82.4373C19.9194 82.5493 18.9137 82.4359 17.9703 82.1056C17.027 81.7753 16.1701 81.2366 15.4633 80.5295C14.7566 79.8224 14.2182 78.965 13.8881 78.0211C13.5579 77.0773 13.4446 76.0711 13.5565 75.0774L14.6231 65.2641C14.7435 64.1512 14.582 63.0259 14.1535 61.992C13.725 60.958 13.0432 60.0485 12.1711 59.3475L4.48812 53.1692C3.7115 52.545 3.08479 51.7544 2.65417 50.8557C2.22355 49.9569 2 48.973 2 47.9763C2 46.9796 2.22355 45.9957 2.65417 45.0969C3.08479 44.1982 3.7115 43.4076 4.48812 42.7834L12.1711 36.601C13.0435 35.9011 13.7255 34.9924 14.1541 33.959C14.5826 32.9256 14.744 31.8008 14.6231 30.6885L13.5565 20.8752C13.4454 19.8817 13.5593 18.8758 13.8897 17.9323C14.2201 16.9888 14.7585 16.1318 15.4651 15.4249C16.1716 14.7179 17.0282 14.1792 17.9712 13.8486C18.9142 13.518 19.9195 13.4041 20.9125 13.5152L30.7206 14.5824C31.8328 14.7025 32.9574 14.5408 33.9908 14.112C35.0241 13.6833 35.9331 13.0014 36.6341 12.1291L42.8091 4.487Z" stroke="black" stroke-width="4" stroke-linecap="round" stroke-linejoin="round"/>
</svg>
