<svg width="24" height="18" viewBox="0 0 24 18" fill="none" xmlns="http://www.w3.org/2000/svg">
<path fill-rule="evenodd" clip-rule="evenodd" d="M19.6509 9.7447C19.6509 8.49862 20.6257 7.48617 21.8254 7.48617C23.0252 7.48617 24 8.49862 24 9.78364C24 11.0297 23.0252 12.0422 21.8254 12.0422C21.338 12.0422 20.8506 11.8864 20.4757 11.5749L12.9773 15.7804C12.9398 17.0265 12.0025 18 10.8027 18C9.75293 18 8.81562 17.1433 8.66565 16.053L1.84206 12.3926C0.717288 11.8085 -0.0700503 10.1341 0.00493432 8.53756C0.0424266 7.52511 0.454842 6.70737 1.09221 6.31797C1.30065 6.18808 3.34002 5.13144 5.92828 3.79041C7.99556 2.71931 10.413 1.46678 12.5274 0.360135L12.7898 0.243315C12.9023 0.165435 13.6521 -0.262906 14.5519 0.243315C15.6017 0.827417 18.0012 1.99562 20.1008 3.00806C20.4979 3.1984 20.9011 3.3952 21.2853 3.58266C21.8443 3.85544 22.3628 4.10846 22.7628 4.29309C22.7628 4.29309 23.1002 4.44885 23.1002 4.79931C23.1002 5.07189 22.9127 5.22765 22.7253 5.30553L11.1776 11.5359C10.5403 11.8475 10.3528 11.7696 9.97788 11.6138C9.83957 11.542 7.67457 10.3662 5.62646 9.25384C4.3434 8.557 3.10621 7.88508 2.44193 7.52511L2.40444 7.48617C2.14199 7.36935 1.95453 7.33041 1.76707 7.44723C1.50463 7.60299 1.31716 8.03133 1.27967 8.5765C1.20469 9.66682 1.72958 10.7961 2.40444 11.1855L8.85312 14.6901C9.22804 13.9502 9.97788 13.444 10.8027 13.444C11.5151 13.444 12.1899 13.7945 12.6023 14.4175L19.7634 10.4456C19.6884 10.212 19.6509 9.97834 19.6509 9.7447ZM21.8254 10.4846C21.4505 10.4846 21.1131 10.173 21.1131 9.7447C21.1131 9.3553 21.413 9.00484 21.8254 9.00484C22.2004 9.00484 22.5378 9.31636 22.5378 9.7447C22.5378 10.1341 22.2004 10.4846 21.8254 10.4846ZM10.8027 15.0016C11.1776 15.0016 11.5151 15.3131 11.5151 15.7415C11.5151 16.1309 11.2151 16.4813 10.8027 16.4813C10.4278 16.4813 10.0904 16.1698 10.0904 15.7415C10.0904 15.3131 10.4278 15.0016 10.8027 15.0016Z" fill="white"/>
</svg>
