<svg width="34" height="34" xmlns="http://www.w3.org/2000/svg" fill="none">
 <defs>
  <linearGradient id="paint1_linear" x1="0.5" y1="0" x2="0.5" y2="1">
   <stop stop-color="white"/>
   <stop offset="1" stop-color="white" stop-opacity="0.82"/>
  </linearGradient>
 </defs>
 <g>
  <title>Layer 1</title>
  <path d="m49.4949,16.4983l0,-5.104l2.7405,0c1.7349,0 2.7909,0.9806 2.7909,2.5646c0,1.5337 -1.056,2.5394 -2.7909,2.5394l-2.7405,0zm3.168,2.992c3.52,0 5.8582,-2.3132 5.8582,-5.5566c0,-3.2183 -2.3382,-5.55656 -5.8582,-5.55656l-6.6629,0l0,17.82626l3.4697,0l0,-6.7131l3.1932,0z" fill="white" id="svg_1"/>
  <path d="m64.1685,18.9371c0.0754,-1.3577 0.9051,-2.4137 2.3131,-2.4137c1.6091,0 2.288,1.0812 2.288,2.464l0,7.216l3.344,0l0,-7.7943c0,-2.7154 -1.4583,-4.9028 -4.6011,-4.9028c-1.1818,0 -2.5395,0.4023 -3.344,1.3577l0,-6.864l-3.344,0l0,18.2034l3.344,0l0,-7.2663z" fill="white" id="svg_2"/>
  <path d="m74.7532,22.8343c0,1.936 1.6092,3.7211 4.2492,3.7211c1.8354,0 3.0171,-0.8548 3.6457,-1.8354c0,0.4777 0.0503,1.1566 0.1257,1.4834l3.0674,0c-0.0754,-0.4274 -0.1508,-1.3074 -0.1508,-1.9611l0,-6.0846c0,-2.4891 -1.4583,-4.7017 -5.3806,-4.7017c-3.3189,0 -5.104,2.1371 -5.3052,4.0731l2.9669,0.6286c0.1006,-1.0811 0.9051,-2.0114 2.3634,-2.0114c1.408,0 2.0869,0.7291 2.0869,1.6091c0,0.4275 -0.2263,0.7795 -0.9303,0.88l-3.0423,0.4526c-2.0617,0.3017 -3.696,1.5337 -3.696,3.7463zm4.9532,1.232c-1.0812,0 -1.6092,-0.704 -1.6092,-1.4332c0,-0.9554 0.6789,-1.4331 1.5337,-1.5588l2.7909,-0.4274l0,0.5531c0,2.1874 -1.3074,2.8663 -2.7154,2.8663z" fill="white" id="svg_3"/>
  <path d="m92.4051,19.088c0,-1.4331 0.8548,-2.5646 2.3131,-2.5646c1.6092,0 2.288,1.0812 2.288,2.464l0,7.216l3.3438,0l0,-7.7943c0,-2.7154 -1.4078,-4.9028 -4.4752,-4.9028c-1.3326,0 -2.816,0.5783 -3.5703,1.8606l0,-1.5338l-3.2434,0l0,12.3703l3.344,0l0,-7.1154z" fill="white" id="svg_4"/>
  <path d="m107.868,10.1371l-3.018,0l0,1.7349c0,1.1063 -0.603,1.9611 -1.91,1.9611l-0.629,0l0,2.9669l2.238,0l0,5.7577c0,2.3886 1.508,3.8217 3.922,3.8217c0.981,0 1.584,-0.176 1.886,-0.3017l0,-2.7657c-0.176,0.0503 -0.629,0.1006 -1.031,0.1006c-0.956,0 -1.458,-0.352 -1.458,-1.4332l0,-5.1794l2.489,0l0,-2.9669l-2.489,0l0,-3.696z" fill="white" id="svg_5"/>
  <path d="m118.631,23.5383c-1.634,0 -3.143,-1.2069 -3.143,-3.52c0,-2.3383 1.509,-3.52 3.143,-3.52c1.634,0 3.143,1.1817 3.143,3.52c0,2.3383 -1.509,3.52 -3.143,3.52zm0,-10.0823c-3.696,0 -6.487,2.7406 -6.487,6.5623c0,3.7966 2.791,6.5623 6.487,6.5623c3.696,0 6.487,-2.7657 6.487,-6.5623c0,-3.8217 -2.791,-6.5623 -6.487,-6.5623z" fill="white" id="svg_6"/>
  <path d="m131.101,26.2034l0,-7.2411c0,-1.3577 0.855,-2.4389 2.314,-2.4389c1.508,0 2.187,1.0057 2.187,2.3383l0,7.3417l3.319,0l0,-7.2411c0,-1.3326 0.855,-2.4389 2.288,-2.4389c1.534,0 2.187,1.0057 2.187,2.3383l0,7.3417l3.244,0l0,-8.0205c0,-3.3189 -2.188,-4.7018 -4.476,-4.7018c-1.634,0 -2.941,0.5532 -3.922,2.0618c-0.629,-1.3326 -1.986,-2.0618 -3.671,-2.0618c-1.357,0 -2.941,0.6538 -3.62,1.8606l0,-1.5086l-3.194,0l0,12.3703l3.344,0z" fill="white" id="svg_7"/>
  <path d="m29.1702,17.2071l-2.9969,0c0,-6.1074 -4.9683,-11.05817 -11.0975,-11.05817c-6.05325,0 -10.97463,4.82957 -11.09508,10.83237c-0.12461,6.205 5.71752,11.5932 11.94538,11.5932l0.7834,0c5.4906,0 12.8497,-4.2829 13.9995,-9.5013c0.2123,-0.9619 -0.5502,-1.8661 -1.5388,-1.8661zm-18.5479,0.2721c0,0.8167 -0.67038,1.4847 -1.49001,1.4847c-0.81964,0 -1.48998,-0.6683 -1.48998,-1.4847l0,-2.4019c0,-0.8167 0.67034,-1.4847 1.48998,-1.4847c0.81963,0 1.49001,0.668 1.49001,1.4847l0,2.4019zm5.1738,0c0,0.8167 -0.6703,1.4847 -1.4899,1.4847c-0.8197,0 -1.49,-0.6683 -1.49,-1.4847l0,-2.4019c0,-0.8167 0.6706,-1.4847 1.49,-1.4847c0.8196,0 1.4899,0.668 1.4899,1.4847l0,2.4019z" fill="url(#paint1_linear)" id="svg_9"/>
  <path d="m0.80165,29.27273c0.08264,0 0.39277,0.11115 1.07438,0.57851c0.64302,0.44091 1.42145,0.88783 2.06612,1.40496c0.59435,0.47677 1.19164,0.93029 1.32231,1.32232c0.05227,0.15681 -0.08264,0.08264 -0.16529,-0.08265l-0.33058,-0.33058l-0.41322,-0.41323l-0.33058,-0.41322" id="svg_11" fill="none"/>
  <path d="m3.19835,30.67769c0.08264,0 0.33058,0.24793 0.66116,0.57851c0.33058,0.33058 0.66116,0.66116 0.82645,0.82645l0.08264,0l0.08264,0" id="svg_12" fill="none"/>
  <path d="m0.55372,27.45455c0.24793,0 0.57851,0.24793 0.90909,0.57851c0.41322,0.41322 0.93806,1.1258 1.65289,1.81818c0.92728,0.89816 1.96619,1.7552 2.80992,2.47934c0.89133,0.765 1.59555,1.38364 2.14876,2.06612c0.52041,0.64201 0.80623,1.25058 0.99174,1.57025c0.14956,0.25773 0.16529,0.41322 0.24793,0.57851l0,0.16529l0,0.08265l-0.08264,0" id="svg_13" fill="none"/>
  <line stroke-linecap="undefined" stroke-linejoin="undefined" id="svg_15" y2="33.98347" x2="6.2562" y1="28.03306" x1="-0.68595" fill="none"/>
  <line stroke-linecap="undefined" stroke-linejoin="undefined" id="svg_16" y2="17.45455" x2="52.70248" y1="17.45455" x1="52.86777" fill="none"/>
 </g>
</svg>