<svg width="24" height="18" viewBox="0 0 24 18" fill="none" xmlns="http://www.w3.org/2000/svg">
<path d="M7.54782 18C16.605 18 21.5577 11.0755 21.5577 5.0711C21.5577 4.87442 21.5534 4.67863 21.5438 4.48372C22.5053 3.8423 23.341 3.04186 24 2.13068C23.1178 2.49258 22.1683 2.73621 21.1723 2.84607C22.1889 2.2835 22.9694 1.39358 23.3376 0.332669C22.3862 0.853156 21.3326 1.23145 20.2108 1.43566C19.3123 0.552381 18.0331 0 16.6166 0C13.8973 0 11.6922 2.03499 11.6922 4.54352C11.6922 4.90011 11.7354 5.24695 11.8199 5.57962C7.72736 5.38959 4.09852 3.5814 1.67018 0.831894C1.2473 1.50343 1.00346 2.2835 1.00346 3.11584C1.00346 4.69236 1.87274 6.08416 3.19468 6.89834C2.38683 6.87531 1.62794 6.67065 0.964574 6.33001C0.963849 6.34908 0.963849 6.36766 0.963849 6.38804C0.963849 8.5887 2.66115 10.4261 4.91429 10.8425C4.50052 10.9466 4.06516 11.0024 3.61588 11.0024C3.29907 11.0024 2.99043 10.9737 2.69043 10.9205C3.31731 12.726 5.13509 14.0399 7.29031 14.0766C5.60501 15.2957 3.48195 16.0217 1.17457 16.0217C0.777607 16.0217 0.385444 16.0009 0 15.9588C2.17922 17.2478 4.76693 18 7.54807 18" fill="white"/>
</svg>
