<?xml version="1.0" standalone="no"?>
<!DOCTYPE svg PUBLIC "-//W3C//DTD SVG 20010904//EN"
 "http://www.w3.org/TR/2001/REC-SVG-20010904/DTD/svg10.dtd">
<svg version="1.0" xmlns="http://www.w3.org/2000/svg"
 width="183.000000pt" height="183.000000pt" viewBox="0 0 183.000000 183.000000"
 preserveAspectRatio="xMidYMid meet">
<metadata>
Created by potrace 1.14, written by Peter Selinger 2001-2017
</metadata>
<g transform="translate(0.000000,183.000000) scale(0.100000,-0.100000)"
fill="#000000" stroke="none">
<path d="M783 1814 c-105 -36 -147 -171 -78 -252 13 -15 81 -72 152 -127 152
-116 205 -179 240 -285 23 -68 26 -117 26 -386 0 -261 -1 -274 -22 -318 -65
-133 -233 -177 -347 -89 -62 47 -64 57 -64 411 0 246 3 323 13 329 6 4 45 8
85 9 51 1 77 5 83 15 13 21 11 38 -8 54 -55 44 -446 345 -450 345 -2 0 -13 -5
-24 -10 -18 -10 -19 -27 -19 -566 0 -534 1 -557 21 -616 28 -83 67 -137 140
-192 226 -170 486 -175 706 -12 99 73 172 184 207 316 11 44 13 113 10 355 -7
410 -9 453 -23 505 -21 73 -59 139 -109 189 -39 38 -363 288 -411 316 -30 18
-90 22 -128 9z"/>
</g>
</svg>
